<?xml version="1.0" encoding="UTF-8" standalone="no"?>
<!DOCTYPE svg PUBLIC "-//W3C//DTD SVG 1.1//EN"
 "http://www.w3.org/Graphics/SVG/1.1/DTD/svg11.dtd">
<!-- Generated by graphviz version 2.43.0 (0)
 -->
<!-- Title: Graphical Class Hierarchy Pages: 1 -->
<svg width="371pt" height="278pt"
 viewBox="0.00 0.00 371.00 278.00" xmlns="http://www.w3.org/2000/svg" xmlns:xlink="http://www.w3.org/1999/xlink">
<g id="graph0" class="graph" transform="scale(1 1) rotate(0) translate(4 274)">
<title>Graphical Class Hierarchy</title>
<!-- Node0 -->
<g id="Node000000" class="node">
<title>Node0</title>
<g id="a_Node000000"><a xlink:title=" ">
<polygon fill="#e0e0e0" stroke="#999999" points="130,-144.5 0,-144.5 0,-125.5 130,-125.5 130,-144.5"/>
<text text-anchor="middle" x="65" y="-132.5" font-family="Helvetica,sans-Serif" font-size="10.00">CustomYieldInstruction</text>
</a>
</g>
</g>
<!-- Node1 -->
<g id="Node000001" class="node">
<title>Node1</title>
<g id="a_Node000001"><a xlink:href="df/d8b/classDG_1_1Tweening_1_1DOTweenCYInstruction_1_1WaitForCompletion.html" target="_top" xlink:title=" ">
<polygon fill="white" stroke="#666666" points="363,-270 166,-270 166,-240 363,-240 363,-270"/>
<text text-anchor="start" x="174" y="-258" font-family="Helvetica,sans-Serif" font-size="10.00">DG.Tweening.DOTweenCYInstruction.</text>
<text text-anchor="middle" x="264.5" y="-247" font-family="Helvetica,sans-Serif" font-size="10.00">WaitForCompletion</text>
</a>
</g>
</g>
<!-- Node0&#45;&gt;Node1 -->
<g id="edge1_Node000000_Node000001" class="edge">
<title>Node0&#45;&gt;Node1</title>
<g id="a_edge1_Node000000_Node000001"><a xlink:title=" ">
<path fill="none" stroke="#63b8ff" d="M79.44,-152.68C96.96,-174.45 129.68,-211.01 166,-231 172.26,-234.45 179.02,-237.4 185.95,-239.94"/>
<polygon fill="#63b8ff" stroke="#63b8ff" points="82.02,-150.3 73.09,-144.6 76.52,-154.63 82.02,-150.3"/>
</a>
</g>
</g>
<!-- Node2 -->
<g id="Node000002" class="node">
<title>Node2</title>
<g id="a_Node000002"><a xlink:href="da/d26/classDG_1_1Tweening_1_1DOTweenCYInstruction_1_1WaitForElapsedLoops.html" target="_top" xlink:title=" ">
<polygon fill="white" stroke="#666666" points="363,-222 166,-222 166,-192 363,-192 363,-222"/>
<text text-anchor="start" x="174" y="-210" font-family="Helvetica,sans-Serif" font-size="10.00">DG.Tweening.DOTweenCYInstruction.</text>
<text text-anchor="middle" x="264.5" y="-199" font-family="Helvetica,sans-Serif" font-size="10.00">WaitForElapsedLoops</text>
</a>
</g>
</g>
<!-- Node0&#45;&gt;Node2 -->
<g id="edge2_Node000000_Node000002" class="edge">
<title>Node0&#45;&gt;Node2</title>
<g id="a_edge2_Node000000_Node000002"><a xlink:title=" ">
<path fill="none" stroke="#63b8ff" d="M92.24,-149.44C112.05,-159.88 140.14,-173.72 166,-183 175.19,-186.3 185.02,-189.3 194.78,-191.98"/>
<polygon fill="#63b8ff" stroke="#63b8ff" points="93.7,-146.25 83.23,-144.62 90.4,-152.42 93.7,-146.25"/>
</a>
</g>
</g>
<!-- Node3 -->
<g id="Node000003" class="node">
<title>Node3</title>
<g id="a_Node000003"><a xlink:href="df/d8b/classDG_1_1Tweening_1_1DOTweenCYInstruction_1_1WaitForKill.html" target="_top" xlink:title=" ">
<polygon fill="white" stroke="#666666" points="363,-174 166,-174 166,-144 363,-144 363,-174"/>
<text text-anchor="start" x="174" y="-162" font-family="Helvetica,sans-Serif" font-size="10.00">DG.Tweening.DOTweenCYInstruction.</text>
<text text-anchor="middle" x="264.5" y="-151" font-family="Helvetica,sans-Serif" font-size="10.00">WaitForKill</text>
</a>
</g>
</g>
<!-- Node0&#45;&gt;Node3 -->
<g id="edge3_Node000000_Node000003" class="edge">
<title>Node0&#45;&gt;Node3</title>
<g id="a_edge3_Node000000_Node000003"><a xlink:title=" ">
<path fill="none" stroke="#63b8ff" d="M140.25,-144.02C148.66,-145.05 157.34,-146.1 166,-147.15"/>
<polygon fill="#63b8ff" stroke="#63b8ff" points="140.47,-140.52 130.12,-142.79 139.63,-147.47 140.47,-140.52"/>
</a>
</g>
</g>
<!-- Node4 -->
<g id="Node000004" class="node">
<title>Node4</title>
<g id="a_Node000004"><a xlink:href="d6/d65/classDG_1_1Tweening_1_1DOTweenCYInstruction_1_1WaitForPosition.html" target="_top" xlink:title=" ">
<polygon fill="white" stroke="#666666" points="363,-126 166,-126 166,-96 363,-96 363,-126"/>
<text text-anchor="start" x="174" y="-114" font-family="Helvetica,sans-Serif" font-size="10.00">DG.Tweening.DOTweenCYInstruction.</text>
<text text-anchor="middle" x="264.5" y="-103" font-family="Helvetica,sans-Serif" font-size="10.00">WaitForPosition</text>
</a>
</g>
</g>
<!-- Node0&#45;&gt;Node4 -->
<g id="edge4_Node000000_Node000004" class="edge">
<title>Node0&#45;&gt;Node4</title>
<g id="a_edge4_Node000000_Node000004"><a xlink:title=" ">
<path fill="none" stroke="#63b8ff" d="M140.25,-125.98C148.66,-124.95 157.34,-123.9 166,-122.85"/>
<polygon fill="#63b8ff" stroke="#63b8ff" points="139.63,-122.53 130.12,-127.21 140.47,-129.48 139.63,-122.53"/>
</a>
</g>
</g>
<!-- Node5 -->
<g id="Node000005" class="node">
<title>Node5</title>
<g id="a_Node000005"><a xlink:href="d9/d71/classDG_1_1Tweening_1_1DOTweenCYInstruction_1_1WaitForRewind.html" target="_top" xlink:title=" ">
<polygon fill="white" stroke="#666666" points="363,-78 166,-78 166,-48 363,-48 363,-78"/>
<text text-anchor="start" x="174" y="-66" font-family="Helvetica,sans-Serif" font-size="10.00">DG.Tweening.DOTweenCYInstruction.</text>
<text text-anchor="middle" x="264.5" y="-55" font-family="Helvetica,sans-Serif" font-size="10.00">WaitForRewind</text>
</a>
</g>
</g>
<!-- Node0&#45;&gt;Node5 -->
<g id="edge5_Node000000_Node000005" class="edge">
<title>Node0&#45;&gt;Node5</title>
<g id="a_edge5_Node000000_Node000005"><a xlink:title=" ">
<path fill="none" stroke="#63b8ff" d="M92.24,-120.56C112.05,-110.12 140.14,-96.28 166,-87 175.19,-83.7 185.02,-80.7 194.78,-78.02"/>
<polygon fill="#63b8ff" stroke="#63b8ff" points="90.4,-117.58 83.23,-125.38 93.7,-123.75 90.4,-117.58"/>
</a>
</g>
</g>
<!-- Node6 -->
<g id="Node000006" class="node">
<title>Node6</title>
<g id="a_Node000006"><a xlink:href="d0/d83/classDG_1_1Tweening_1_1DOTweenCYInstruction_1_1WaitForStart.html" target="_top" xlink:title=" ">
<polygon fill="white" stroke="#666666" points="363,-30 166,-30 166,0 363,0 363,-30"/>
<text text-anchor="start" x="174" y="-18" font-family="Helvetica,sans-Serif" font-size="10.00">DG.Tweening.DOTweenCYInstruction.</text>
<text text-anchor="middle" x="264.5" y="-7" font-family="Helvetica,sans-Serif" font-size="10.00">WaitForStart</text>
</a>
</g>
</g>
<!-- Node0&#45;&gt;Node6 -->
<g id="edge6_Node000000_Node000006" class="edge">
<title>Node0&#45;&gt;Node6</title>
<g id="a_edge6_Node000000_Node000006"><a xlink:title=" ">
<path fill="none" stroke="#63b8ff" d="M79.44,-117.32C96.96,-95.55 129.68,-58.99 166,-39 172.26,-35.55 179.02,-32.6 185.95,-30.06"/>
<polygon fill="#63b8ff" stroke="#63b8ff" points="76.52,-115.37 73.09,-125.4 82.02,-119.7 76.52,-115.37"/>
</a>
</g>
</g>
</g>
</svg>
