<?xml version="1.0" encoding="UTF-8" standalone="no"?>
<!DOCTYPE svg PUBLIC "-//W3C//DTD SVG 1.1//EN"
 "http://www.w3.org/Graphics/SVG/1.1/DTD/svg11.dtd">
<!-- Generated by graphviz version 2.43.0 (0)
 -->
<!-- Title: Graphical Class Hierarchy Pages: 1 -->
<svg width="324pt" height="101pt"
 viewBox="0.00 0.00 324.00 101.00" xmlns="http://www.w3.org/2000/svg" xmlns:xlink="http://www.w3.org/1999/xlink">
<g id="graph0" class="graph" transform="scale(1 1) rotate(0) translate(4 97)">
<title>Graphical Class Hierarchy</title>
<!-- Node0 -->
<g id="Node000000" class="node">
<title>Node0</title>
<g id="a_Node000000"><a xlink:title=" ">
<polygon fill="#e0e0e0" stroke="#999999" points="97,-56 0,-56 0,-37 97,-37 97,-56"/>
<text text-anchor="middle" x="48.5" y="-44" font-family="Helvetica,sans-Serif" font-size="10.00">ScriptableObject</text>
</a>
</g>
</g>
<!-- Node1 -->
<g id="Node000001" class="node">
<title>Node1</title>
<g id="a_Node000001"><a xlink:href="d6/d4e/classCharacterStats.html" target="_top" xlink:title=" ">
<polygon fill="white" stroke="#666666" points="222,-93 133,-93 133,-74 222,-74 222,-93"/>
<text text-anchor="middle" x="177.5" y="-81" font-family="Helvetica,sans-Serif" font-size="10.00">CharacterStats</text>
</a>
</g>
</g>
<!-- Node0&#45;&gt;Node1 -->
<g id="edge19_Node000000_Node000001" class="edge">
<title>Node0&#45;&gt;Node1</title>
<g id="a_edge19_Node000000_Node000001"><a xlink:title=" ">
<path fill="none" stroke="#63b8ff" d="M91.81,-58.83C108.63,-63.73 127.69,-69.28 143.46,-73.88"/>
<polygon fill="#63b8ff" stroke="#63b8ff" points="92.79,-55.47 82.21,-56.03 90.83,-62.19 92.79,-55.47"/>
</a>
</g>
</g>
<!-- Node2 -->
<g id="Node000002" class="node">
<title>Node2</title>
<g id="a_Node000002"><a xlink:href="d9/d62/classFoodEffect.html" target="_top" xlink:title=" ">
<polygon fill="white" stroke="#666666" points="211.5,-56 143.5,-56 143.5,-37 211.5,-37 211.5,-56"/>
<text text-anchor="middle" x="177.5" y="-44" font-family="Helvetica,sans-Serif" font-size="10.00">FoodEffect</text>
</a>
</g>
</g>
<!-- Node0&#45;&gt;Node2 -->
<g id="edge20_Node000000_Node000002" class="edge">
<title>Node0&#45;&gt;Node2</title>
<g id="a_edge20_Node000000_Node000002"><a xlink:title=" ">
<path fill="none" stroke="#63b8ff" d="M107.37,-46.5C119.66,-46.5 132.24,-46.5 143.23,-46.5"/>
<polygon fill="#63b8ff" stroke="#63b8ff" points="107.15,-43 97.15,-46.5 107.15,-50 107.15,-43"/>
</a>
</g>
</g>
<!-- Node5 -->
<g id="Node000005" class="node">
<title>Node5</title>
<g id="a_Node000005"><a xlink:href="d7/d35/classFoodStats.html" target="_top" xlink:title=" ">
<polygon fill="white" stroke="#666666" points="210,-19 145,-19 145,0 210,0 210,-19"/>
<text text-anchor="middle" x="177.5" y="-7" font-family="Helvetica,sans-Serif" font-size="10.00">FoodStats</text>
</a>
</g>
</g>
<!-- Node0&#45;&gt;Node5 -->
<g id="edge23_Node000000_Node000005" class="edge">
<title>Node0&#45;&gt;Node5</title>
<g id="a_edge23_Node000000_Node000005"><a xlink:title=" ">
<path fill="none" stroke="#63b8ff" d="M92.04,-34.11C109.28,-29.08 128.83,-23.39 144.78,-18.74"/>
<polygon fill="#63b8ff" stroke="#63b8ff" points="90.83,-30.81 82.21,-36.97 92.79,-37.53 90.83,-30.81"/>
</a>
</g>
</g>
<!-- Node3 -->
<g id="Node000003" class="node">
<title>Node3</title>
<g id="a_Node000003"><a xlink:href="d3/d6b/classEmit.html" target="_top" xlink:title=" ">
<polygon fill="white" stroke="#666666" points="306.5,-74 267.5,-74 267.5,-55 306.5,-55 306.5,-74"/>
<text text-anchor="middle" x="287" y="-62" font-family="Helvetica,sans-Serif" font-size="10.00">Emit</text>
</a>
</g>
</g>
<!-- Node2&#45;&gt;Node3 -->
<g id="edge21_Node000002_Node000003" class="edge">
<title>Node2&#45;&gt;Node3</title>
<g id="a_edge21_Node000002_Node000003"><a xlink:title=" ">
<path fill="none" stroke="#63b8ff" d="M221.78,-53.75C237.58,-56.39 254.65,-59.25 267.21,-61.35"/>
<polygon fill="#63b8ff" stroke="#63b8ff" points="222.07,-50.25 211.63,-52.05 220.92,-57.15 222.07,-50.25"/>
</a>
</g>
</g>
<!-- Node4 -->
<g id="Node000004" class="node">
<title>Node4</title>
<g id="a_Node000004"><a xlink:href="db/db7/classScalable.html" target="_top" xlink:title=" ">
<polygon fill="white" stroke="#666666" points="316,-37 258,-37 258,-18 316,-18 316,-37"/>
<text text-anchor="middle" x="287" y="-25" font-family="Helvetica,sans-Serif" font-size="10.00">Scalable</text>
</a>
</g>
</g>
<!-- Node2&#45;&gt;Node4 -->
<g id="edge22_Node000002_Node000004" class="edge">
<title>Node2&#45;&gt;Node4</title>
<g id="a_edge22_Node000002_Node000004"><a xlink:title=" ">
<path fill="none" stroke="#63b8ff" d="M221.64,-38.87C233.84,-36.72 246.8,-34.43 257.87,-32.47"/>
<polygon fill="#63b8ff" stroke="#63b8ff" points="220.87,-35.46 211.63,-40.64 222.09,-42.35 220.87,-35.46"/>
</a>
</g>
</g>
</g>
</svg>
