<?xml version="1.0" encoding="UTF-8" standalone="no"?>
<!DOCTYPE svg PUBLIC "-//W3C//DTD SVG 1.1//EN"
 "http://www.w3.org/Graphics/SVG/1.1/DTD/svg11.dtd">
<!-- Generated by graphviz version 2.43.0 (0)
 -->
<!-- Title: Graphical Class Hierarchy Pages: 1 -->
<svg width="240pt" height="434pt"
 viewBox="0.00 0.00 240.00 434.00" xmlns="http://www.w3.org/2000/svg" xmlns:xlink="http://www.w3.org/1999/xlink">
<g id="graph0" class="graph" transform="scale(1 1) rotate(0) translate(4 430)">
<title>Graphical Class Hierarchy</title>
<!-- Node0 -->
<g id="Node000000" class="node">
<title>Node0</title>
<g id="a_Node000000"><a xlink:title=" ">
<polygon fill="#e0e0e0" stroke="#999999" points="93,-222 0,-222 0,-203 93,-203 93,-222"/>
<text text-anchor="middle" x="46.5" y="-210" font-family="Helvetica,sans-Serif" font-size="10.00">MonoBehaviour</text>
</a>
</g>
</g>
<!-- Node1 -->
<g id="Node000001" class="node">
<title>Node1</title>
<g id="a_Node000001"><a xlink:href="dd/d16/classControlJaw.html" target="_top" xlink:title=" ">
<polygon fill="white" stroke="#666666" points="215,-426 146,-426 146,-407 215,-407 215,-426"/>
<text text-anchor="middle" x="180.5" y="-414" font-family="Helvetica,sans-Serif" font-size="10.00">ControlJaw</text>
</a>
</g>
</g>
<!-- Node0&#45;&gt;Node1 -->
<g id="edge7_Node000000_Node000001" class="edge">
<title>Node0&#45;&gt;Node1</title>
<g id="a_edge7_Node000000_Node000001"><a xlink:title=" ">
<path fill="none" stroke="#63b8ff" d="M50.83,-232.3C58.17,-269.92 79.21,-352.11 129,-398.5 133.77,-402.94 139.7,-406.3 145.81,-408.84"/>
<polygon fill="#63b8ff" stroke="#63b8ff" points="54.21,-231.36 48.98,-222.15 47.33,-232.61 54.21,-231.36"/>
</a>
</g>
</g>
<!-- Node2 -->
<g id="Node000002" class="node">
<title>Node2</title>
<g id="a_Node000002"><a xlink:href="de/d50/classCountDownTimer.html" target="_top" xlink:title=" ">
<polygon fill="white" stroke="#666666" points="231,-389 130,-389 130,-370 231,-370 231,-389"/>
<text text-anchor="middle" x="180.5" y="-377" font-family="Helvetica,sans-Serif" font-size="10.00">CountDownTimer</text>
</a>
</g>
</g>
<!-- Node0&#45;&gt;Node2 -->
<g id="edge8_Node000000_Node000002" class="edge">
<title>Node0&#45;&gt;Node2</title>
<g id="a_edge8_Node000000_Node000002"><a xlink:title=" ">
<path fill="none" stroke="#63b8ff" d="M53.08,-231.81C63.14,-263.34 87.27,-325.89 129,-361.5 132.97,-364.88 137.61,-367.65 142.45,-369.9"/>
<polygon fill="#63b8ff" stroke="#63b8ff" points="56.37,-230.59 50.1,-222.05 49.67,-232.64 56.37,-230.59"/>
</a>
</g>
</g>
<!-- Node3 -->
<g id="Node000003" class="node">
<title>Node3</title>
<g id="a_Node000003"><a xlink:href="dc/df8/classFoodObject.html" target="_top" xlink:title=" ">
<polygon fill="white" stroke="#666666" points="216,-352 145,-352 145,-333 216,-333 216,-352"/>
<text text-anchor="middle" x="180.5" y="-340" font-family="Helvetica,sans-Serif" font-size="10.00">FoodObject</text>
</a>
</g>
</g>
<!-- Node0&#45;&gt;Node3 -->
<g id="edge9_Node000000_Node000003" class="edge">
<title>Node0&#45;&gt;Node3</title>
<g id="a_edge9_Node000000_Node000003"><a xlink:title=" ">
<path fill="none" stroke="#63b8ff" d="M56.52,-231.14C69.36,-255.83 95.15,-299.19 129,-324.5 133.77,-328.07 139.31,-330.98 144.94,-333.33"/>
<polygon fill="#63b8ff" stroke="#63b8ff" points="59.59,-229.46 51.96,-222.1 53.34,-232.6 59.59,-229.46"/>
</a>
</g>
</g>
<!-- Node4 -->
<g id="Node000004" class="node">
<title>Node4</title>
<g id="a_Node000004"><a xlink:href="d6/dcc/classFoodSpawner.html" target="_top" xlink:title=" ">
<polygon fill="white" stroke="#666666" points="221.5,-315 139.5,-315 139.5,-296 221.5,-296 221.5,-315"/>
<text text-anchor="middle" x="180.5" y="-303" font-family="Helvetica,sans-Serif" font-size="10.00">FoodSpawner</text>
</a>
</g>
</g>
<!-- Node0&#45;&gt;Node4 -->
<g id="edge10_Node000000_Node000004" class="edge">
<title>Node0&#45;&gt;Node4</title>
<g id="a_edge10_Node000000_Node000004"><a xlink:title=" ">
<path fill="none" stroke="#63b8ff" d="M62.64,-230.03C77.92,-246.79 102.93,-271.76 129,-287.5 134.42,-290.77 140.52,-293.57 146.56,-295.93"/>
<polygon fill="#63b8ff" stroke="#63b8ff" points="64.85,-227.25 55.58,-222.11 59.62,-231.9 64.85,-227.25"/>
</a>
</g>
</g>
<!-- Node5 -->
<g id="Node000005" class="node">
<title>Node5</title>
<g id="a_Node000005"><a xlink:href="d2/d2c/classGameManager.html" target="_top" xlink:title=" ">
<polygon fill="white" stroke="#666666" points="225,-278 136,-278 136,-259 225,-259 225,-278"/>
<text text-anchor="middle" x="180.5" y="-266" font-family="Helvetica,sans-Serif" font-size="10.00">GameManager</text>
</a>
</g>
</g>
<!-- Node0&#45;&gt;Node5 -->
<g id="edge11_Node000000_Node000005" class="edge">
<title>Node0&#45;&gt;Node5</title>
<g id="a_edge11_Node000000_Node000005"><a xlink:title=" ">
<path fill="none" stroke="#63b8ff" d="M75.79,-226.49C91.34,-233.97 111.06,-243.14 129,-250.5 136.15,-253.43 143.97,-256.36 151.28,-258.97"/>
<polygon fill="#63b8ff" stroke="#63b8ff" points="77.23,-223.3 66.7,-222.08 74.17,-229.59 77.23,-223.3"/>
</a>
</g>
</g>
<!-- Node6 -->
<g id="Node000006" class="node">
<title>Node6</title>
<g id="a_Node000006"><a xlink:href="d2/d8e/classHandMovement.html" target="_top" xlink:title=" ">
<polygon fill="white" stroke="#666666" points="228,-241 133,-241 133,-222 228,-222 228,-241"/>
<text text-anchor="middle" x="180.5" y="-229" font-family="Helvetica,sans-Serif" font-size="10.00">HandMovement</text>
</a>
</g>
</g>
<!-- Node0&#45;&gt;Node6 -->
<g id="edge12_Node000000_Node000006" class="edge">
<title>Node0&#45;&gt;Node6</title>
<g id="a_edge12_Node000000_Node000006"><a xlink:title=" ">
<path fill="none" stroke="#63b8ff" d="M103.39,-220.54C113.22,-221.96 123.35,-223.42 132.89,-224.79"/>
<polygon fill="#63b8ff" stroke="#63b8ff" points="103.69,-217.05 93.3,-219.09 102.7,-223.98 103.69,-217.05"/>
</a>
</g>
</g>
<!-- Node7 -->
<g id="Node000007" class="node">
<title>Node7</title>
<g id="a_Node000007"><a xlink:href="de/d4d/classHandPickUp.html" target="_top" xlink:title=" ">
<polygon fill="white" stroke="#666666" points="218.5,-204 142.5,-204 142.5,-185 218.5,-185 218.5,-204"/>
<text text-anchor="middle" x="180.5" y="-192" font-family="Helvetica,sans-Serif" font-size="10.00">HandPickUp</text>
</a>
</g>
</g>
<!-- Node0&#45;&gt;Node7 -->
<g id="edge13_Node000000_Node000007" class="edge">
<title>Node0&#45;&gt;Node7</title>
<g id="a_edge13_Node000000_Node000007"><a xlink:title=" ">
<path fill="none" stroke="#63b8ff" d="M103.57,-204.85C116.58,-203.08 130.11,-201.24 142.08,-199.6"/>
<polygon fill="#63b8ff" stroke="#63b8ff" points="102.73,-201.44 93.3,-206.25 103.68,-208.37 102.73,-201.44"/>
</a>
</g>
</g>
<!-- Node8 -->
<g id="Node000008" class="node">
<title>Node8</title>
<g id="a_Node000008"><a xlink:href="dc/d39/classHeadMovment.html" target="_top" xlink:title=" ">
<polygon fill="white" stroke="#666666" points="225,-167 136,-167 136,-148 225,-148 225,-167"/>
<text text-anchor="middle" x="180.5" y="-155" font-family="Helvetica,sans-Serif" font-size="10.00">HeadMovment</text>
</a>
</g>
</g>
<!-- Node0&#45;&gt;Node8 -->
<g id="edge14_Node000000_Node000008" class="edge">
<title>Node0&#45;&gt;Node8</title>
<g id="a_edge14_Node000000_Node000008"><a xlink:title=" ">
<path fill="none" stroke="#63b8ff" d="M77.92,-198.58C93.17,-191.72 111.97,-183.46 129,-176.5 136.8,-173.31 145.36,-170.02 153.18,-167.08"/>
<polygon fill="#63b8ff" stroke="#63b8ff" points="76.14,-195.54 68.47,-202.85 79.02,-201.92 76.14,-195.54"/>
</a>
</g>
</g>
<!-- Node9 -->
<g id="Node000009" class="node">
<title>Node9</title>
<g id="a_Node000009"><a xlink:href="d7/d94/classMouthMovement.html" target="_top" xlink:title=" ">
<polygon fill="white" stroke="#666666" points="230.5,-130 130.5,-130 130.5,-111 230.5,-111 230.5,-130"/>
<text text-anchor="middle" x="180.5" y="-118" font-family="Helvetica,sans-Serif" font-size="10.00">MouthMovement</text>
</a>
</g>
</g>
<!-- Node0&#45;&gt;Node9 -->
<g id="edge15_Node000000_Node000009" class="edge">
<title>Node0&#45;&gt;Node9</title>
<g id="a_edge15_Node000000_Node000009"><a xlink:title=" ">
<path fill="none" stroke="#63b8ff" d="M63.29,-195.03C78.72,-178.82 103.55,-154.93 129,-139.5 135.01,-135.86 141.83,-132.72 148.47,-130.1"/>
<polygon fill="#63b8ff" stroke="#63b8ff" points="60.38,-193.02 56.12,-202.73 65.5,-197.8 60.38,-193.02"/>
</a>
</g>
</g>
<!-- Node10 -->
<g id="Node000010" class="node">
<title>Node10</title>
<g id="a_Node000010"><a xlink:href="d9/df6/classPickUpInteraction.html" target="_top" xlink:title=" ">
<polygon fill="white" stroke="#666666" points="232,-93 129,-93 129,-74 232,-74 232,-93"/>
<text text-anchor="middle" x="180.5" y="-81" font-family="Helvetica,sans-Serif" font-size="10.00">PickUpInteraction</text>
</a>
</g>
</g>
<!-- Node0&#45;&gt;Node10 -->
<g id="edge16_Node000000_Node000010" class="edge">
<title>Node0&#45;&gt;Node10</title>
<g id="a_edge16_Node000000_Node000010"><a xlink:title=" ">
<path fill="none" stroke="#63b8ff" d="M56.87,-193.92C69.93,-169.71 95.82,-127.54 129,-102.5 134.01,-98.72 139.86,-95.62 145.76,-93.09"/>
<polygon fill="#63b8ff" stroke="#63b8ff" points="53.75,-192.32 52.21,-202.81 59.95,-195.57 53.75,-192.32"/>
</a>
</g>
</g>
<!-- Node11 -->
<g id="Node000011" class="node">
<title>Node11</title>
<g id="a_Node000011"><a xlink:href="dd/d89/classQuickTimeEvent.html" target="_top" xlink:title=" ">
<polygon fill="white" stroke="#666666" points="229,-56 132,-56 132,-37 229,-37 229,-56"/>
<text text-anchor="middle" x="180.5" y="-44" font-family="Helvetica,sans-Serif" font-size="10.00">QuickTimeEvent</text>
</a>
</g>
</g>
<!-- Node0&#45;&gt;Node11 -->
<g id="edge17_Node000000_Node000011" class="edge">
<title>Node0&#45;&gt;Node11</title>
<g id="a_edge17_Node000000_Node000011"><a xlink:title=" ">
<path fill="none" stroke="#63b8ff" d="M53.37,-193.08C63.73,-161.95 88.1,-100.81 129,-65.5 133.47,-61.64 138.79,-58.53 144.29,-56.04"/>
<polygon fill="#63b8ff" stroke="#63b8ff" points="49.99,-192.15 50.29,-202.74 56.66,-194.28 49.99,-192.15"/>
</a>
</g>
</g>
<!-- Node12 -->
<g id="Node000012" class="node">
<title>Node12</title>
<g id="a_Node000012"><a xlink:href="d8/d95/classRespawnFood.html" target="_top" xlink:title=" ">
<polygon fill="white" stroke="#666666" points="222.5,-19 138.5,-19 138.5,0 222.5,0 222.5,-19"/>
<text text-anchor="middle" x="180.5" y="-7" font-family="Helvetica,sans-Serif" font-size="10.00">RespawnFood</text>
</a>
</g>
</g>
<!-- Node0&#45;&gt;Node12 -->
<g id="edge18_Node000000_Node000012" class="edge">
<title>Node0&#45;&gt;Node12</title>
<g id="a_edge18_Node000000_Node000012"><a xlink:title=" ">
<path fill="none" stroke="#63b8ff" d="M50.97,-192.98C58.54,-155.9 79.97,-74.81 129,-28.5 133.09,-24.64 138.03,-21.55 143.21,-19.07"/>
<polygon fill="#63b8ff" stroke="#63b8ff" points="47.49,-192.51 49.05,-203 54.37,-193.83 47.49,-192.51"/>
</a>
</g>
</g>
</g>
</svg>
