<?xml version="1.0" encoding="UTF-8" standalone="no"?>
<!DOCTYPE svg PUBLIC "-//W3C//DTD SVG 1.1//EN"
 "http://www.w3.org/Graphics/SVG/1.1/DTD/svg11.dtd">
<!-- Generated by graphviz version 2.43.0 (0)
 -->
<!-- Title: HandMovement Pages: 1 -->
<svg width="577pt" height="281pt"
 viewBox="0.00 0.00 577.48 281.00" xmlns="http://www.w3.org/2000/svg" xmlns:xlink="http://www.w3.org/1999/xlink">
<g id="graph0" class="graph" transform="scale(1 1) rotate(0) translate(4 277)">
<title>HandMovement</title>
<!-- Node1 -->
<g id="Node000001" class="node">
<title>Node1</title>
<g id="a_Node000001"><a xlink:title=" ">
<polygon fill="#999999" stroke="#666666" points="184.48,-217 89.48,-217 89.48,-198 184.48,-198 184.48,-217"/>
<text text-anchor="middle" x="136.98" y="-205" font-family="Helvetica,sans-Serif" font-size="10.00">HandMovement</text>
</a>
</g>
</g>
<!-- Node3 -->
<g id="Node000003" class="node">
<title>Node3</title>
<g id="a_Node000003"><a xlink:href="../../de/d4d/classHandPickUp.html" target="_top" xlink:title=" ">
<polygon fill="white" stroke="#666666" points="278.98,-85 202.98,-85 202.98,-66 278.98,-66 278.98,-85"/>
<text text-anchor="middle" x="240.98" y="-73" font-family="Helvetica,sans-Serif" font-size="10.00">HandPickUp</text>
</a>
</g>
</g>
<!-- Node1&#45;&gt;Node3 -->
<g id="edge4_Node000003_Node000001" class="edge">
<title>Node1&#45;&gt;Node3</title>
<g id="a_edge4_Node000003_Node000001"><a xlink:title=" ">
<path fill="none" stroke="#9a32cd" stroke-dasharray="5,2" d="M194.72,-204.45C232.8,-199.65 279.78,-186.32 302.98,-151 319.8,-125.4 281.37,-98.55 257.74,-85.16"/>
<polygon fill="#9a32cd" stroke="#9a32cd" points="194.31,-200.97 184.75,-205.54 195.07,-207.93 194.31,-200.97"/>
</a>
</g>
<text text-anchor="middle" x="349.48" y="-139" font-family="Helvetica,sans-Serif" font-size="10.00" fill="grey"> _handMovement</text>
</g>
<!-- Node4 -->
<g id="Node000004" class="node">
<title>Node4</title>
<g id="a_Node000004"><a xlink:href="../../d9/df6/classPickUpInteraction.html" target="_top" xlink:title=" ">
<polygon fill="white" stroke="#666666" points="123.48,-151 20.48,-151 20.48,-132 123.48,-132 123.48,-151"/>
<text text-anchor="middle" x="71.98" y="-139" font-family="Helvetica,sans-Serif" font-size="10.00">PickUpInteraction</text>
</a>
</g>
</g>
<!-- Node1&#45;&gt;Node4 -->
<g id="edge7_Node000004_Node000001" class="edge">
<title>Node1&#45;&gt;Node4</title>
<g id="a_edge7_Node000004_Node000001"><a xlink:title=" ">
<path fill="none" stroke="#9a32cd" stroke-dasharray="5,2" d="M79.36,-197.83C59.6,-193.59 40.94,-187.71 34.98,-180 26.65,-169.22 40.55,-158.29 53.63,-151.03"/>
<polygon fill="#9a32cd" stroke="#9a32cd" points="78.91,-201.31 89.41,-199.84 80.29,-194.45 78.91,-201.31"/>
</a>
</g>
<text text-anchor="middle" x="74.98" y="-172" font-family="Helvetica,sans-Serif" font-size="10.00" fill="grey"> handMovement</text>
</g>
<!-- Node2 -->
<g id="Node000002" class="node">
<title>Node2</title>
<g id="a_Node000002"><a xlink:title=" ">
<polygon fill="white" stroke="#666666" points="115.48,-273 22.48,-273 22.48,-254 115.48,-254 115.48,-273"/>
<text text-anchor="middle" x="68.98" y="-261" font-family="Helvetica,sans-Serif" font-size="10.00">MonoBehaviour</text>
</a>
</g>
</g>
<!-- Node2&#45;&gt;Node1 -->
<g id="edge1_Node000001_Node000002" class="edge">
<title>Node2&#45;&gt;Node1</title>
<g id="a_edge1_Node000001_Node000002"><a xlink:title=" ">
<path fill="none" stroke="#63b8ff" d="M87.74,-247.6C99.98,-237.88 115.54,-225.53 125.86,-217.33"/>
<polygon fill="#63b8ff" stroke="#63b8ff" points="85.56,-244.86 79.91,-253.82 89.92,-250.35 85.56,-244.86"/>
</a>
</g>
</g>
<!-- Node2&#45;&gt;Node3 -->
<g id="edge3_Node000003_Node000002" class="edge">
<title>Node2&#45;&gt;Node3</title>
<g id="a_edge3_Node000003_Node000002"><a xlink:title=" ">
<path fill="none" stroke="#63b8ff" d="M48.35,-247.7C38.78,-239.71 28.17,-229.03 21.98,-217 4.55,-183.13 -10.18,-163.67 10.98,-132 32.09,-100.41 142.8,-85.49 202.59,-79.65"/>
<polygon fill="#63b8ff" stroke="#63b8ff" points="46.33,-250.57 56.36,-253.99 50.65,-245.06 46.33,-250.57"/>
</a>
</g>
</g>
<!-- Node2&#45;&gt;Node4 -->
<g id="edge6_Node000004_Node000002" class="edge">
<title>Node2&#45;&gt;Node4</title>
<g id="a_edge6_Node000004_Node000002"><a xlink:title=" ">
<path fill="none" stroke="#63b8ff" d="M53.22,-246.47C36.53,-227.45 14.44,-195.05 28.98,-169 33.43,-161.04 41.36,-155.17 49.21,-151.01"/>
<polygon fill="#63b8ff" stroke="#63b8ff" points="50.79,-248.99 60.14,-253.97 55.93,-244.24 50.79,-248.99"/>
</a>
</g>
</g>
<!-- Node5 -->
<g id="Node000005" class="node">
<title>Node5</title>
<g id="a_Node000005"><a xlink:href="../../dc/df8/classFoodObject.html" target="_top" xlink:title=" ">
<polygon fill="white" stroke="#666666" points="431.48,-19 360.48,-19 360.48,0 431.48,0 431.48,-19"/>
<text text-anchor="middle" x="395.98" y="-7" font-family="Helvetica,sans-Serif" font-size="10.00">FoodObject</text>
</a>
</g>
</g>
<!-- Node2&#45;&gt;Node5 -->
<g id="edge9_Node000005_Node000002" class="edge">
<title>Node2&#45;&gt;Node5</title>
<g id="a_edge9_Node000005_Node000002"><a xlink:title=" ">
<path fill="none" stroke="#63b8ff" d="M125.82,-260.07C230.69,-254.82 443.98,-240.25 443.98,-208.5 443.98,-208.5 443.98,-208.5 443.98,-74.5 443.98,-50.89 422.82,-30.41 408.59,-19.32"/>
<polygon fill="#63b8ff" stroke="#63b8ff" points="125.54,-256.58 115.72,-260.56 125.88,-263.57 125.54,-256.58"/>
</a>
</g>
</g>
<!-- Node3&#45;&gt;Node1 -->
<g id="edge2_Node000001_Node000003" class="edge">
<title>Node3&#45;&gt;Node1</title>
<g id="a_edge2_Node000001_Node000003"><a xlink:title=" ">
<path fill="none" stroke="#9a32cd" stroke-dasharray="5,2" d="M242.05,-95.41C242.29,-118.3 239.14,-156.67 217.98,-180 209.24,-189.64 196.93,-195.79 184.55,-199.7"/>
<polygon fill="#9a32cd" stroke="#9a32cd" points="245.55,-95.15 241.71,-85.28 238.55,-95.39 245.55,-95.15"/>
</a>
</g>
<text text-anchor="middle" x="268.48" y="-139" font-family="Helvetica,sans-Serif" font-size="10.00" fill="grey"> handPickUp</text>
</g>
<!-- Node3&#45;&gt;Node5 -->
<g id="edge10_Node000005_Node000003" class="edge">
<title>Node3&#45;&gt;Node5</title>
<g id="a_edge10_Node000005_Node000003"><a xlink:title=" ">
<path fill="none" stroke="#9a32cd" stroke-dasharray="5,2" d="M249.92,-56.77C254.4,-49.59 260.49,-41.86 267.98,-37 295.59,-19.09 332.99,-12.97 360.23,-11.03"/>
<polygon fill="#9a32cd" stroke="#9a32cd" points="246.64,-55.47 244.82,-65.91 252.75,-58.88 246.64,-55.47"/>
</a>
</g>
<text text-anchor="middle" x="293.48" y="-40" font-family="Helvetica,sans-Serif" font-size="10.00" fill="grey"> interactor</text>
</g>
<!-- Node4&#45;&gt;Node1 -->
<g id="edge13_Node000001_Node000004" class="edge">
<title>Node4&#45;&gt;Node1</title>
<g id="a_edge13_Node000001_Node000004"><a xlink:title=" ">
<path fill="none" stroke="#9a32cd" stroke-dasharray="5,2" d="M98.92,-156.3C104.62,-159.95 110.31,-164.23 114.98,-169 123.32,-177.52 129.75,-189.81 133.45,-197.97"/>
<polygon fill="#9a32cd" stroke="#9a32cd" points="100.5,-153.17 90.11,-151.08 96.94,-159.19 100.5,-153.17"/>
</a>
</g>
<text text-anchor="middle" x="168.98" y="-172" font-family="Helvetica,sans-Serif" font-size="10.00" fill="grey"> pickUpInteraction</text>
</g>
<!-- Node4&#45;&gt;Node3 -->
<g id="edge5_Node000003_Node000004" class="edge">
<title>Node4&#45;&gt;Node3</title>
<g id="a_edge5_Node000003_Node000004"><a xlink:title=" ">
<path fill="none" stroke="#9a32cd" stroke-dasharray="5,2" d="M78.76,-122.23C82.26,-115.18 87.25,-107.7 93.98,-103 111.15,-91.02 165.16,-83.61 202.7,-79.77"/>
<polygon fill="#9a32cd" stroke="#9a32cd" points="75.35,-121.3 74.65,-131.88 81.79,-124.05 75.35,-121.3"/>
</a>
</g>
<text text-anchor="middle" x="156.98" y="-106" font-family="Helvetica,sans-Serif" font-size="10.00" fill="grey"> _playerPickUpInteraction</text>
</g>
<!-- Node5&#45;&gt;Node3 -->
<g id="edge8_Node000003_Node000005" class="edge">
<title>Node5&#45;&gt;Node3</title>
<g id="a_edge8_Node000003_Node000005"><a xlink:title=" ">
<path fill="none" stroke="#9a32cd" stroke-dasharray="5,2" d="M371.97,-24.08C357.95,-31.7 339.77,-41.03 322.98,-48 306.26,-54.94 287.03,-61.24 271.39,-65.96"/>
<polygon fill="#9a32cd" stroke="#9a32cd" points="373.87,-27.03 380.94,-19.14 370.5,-20.9 373.87,-27.03"/>
</a>
</g>
<text text-anchor="middle" x="378.48" y="-40" font-family="Helvetica,sans-Serif" font-size="10.00" fill="grey"> _interactable</text>
</g>
<!-- Node6 -->
<g id="Node000006" class="node">
<title>Node6</title>
<g id="a_Node000006"><a xlink:href="../../d7/d35/classFoodStats.html" target="_top" xlink:title=" ">
<polygon fill="white" stroke="#666666" points="545.48,-85 480.48,-85 480.48,-66 545.48,-66 545.48,-85"/>
<text text-anchor="middle" x="512.98" y="-73" font-family="Helvetica,sans-Serif" font-size="10.00">FoodStats</text>
</a>
</g>
</g>
<!-- Node6&#45;&gt;Node5 -->
<g id="edge11_Node000005_Node000006" class="edge">
<title>Node6&#45;&gt;Node5</title>
<g id="a_edge11_Node000005_Node000006"><a xlink:title=" ">
<path fill="none" stroke="#9a32cd" stroke-dasharray="5,2" d="M493.37,-59.76C483.13,-52.41 470.21,-43.7 457.98,-37 445.46,-30.14 430.79,-23.8 418.87,-19.04"/>
<polygon fill="#9a32cd" stroke="#9a32cd" points="491.46,-62.69 501.6,-65.77 495.59,-57.04 491.46,-62.69"/>
</a>
</g>
<text text-anchor="middle" x="488.98" y="-40" font-family="Helvetica,sans-Serif" font-size="10.00" fill="grey"> stats</text>
</g>
<!-- Node7 -->
<g id="Node000007" class="node">
<title>Node7</title>
<g id="a_Node000007"><a xlink:title=" ">
<polygon fill="white" stroke="#666666" points="569.48,-151 472.48,-151 472.48,-132 569.48,-132 569.48,-151"/>
<text text-anchor="middle" x="520.98" y="-139" font-family="Helvetica,sans-Serif" font-size="10.00">ScriptableObject</text>
</a>
</g>
</g>
<!-- Node7&#45;&gt;Node6 -->
<g id="edge12_Node000006_Node000007" class="edge">
<title>Node7&#45;&gt;Node6</title>
<g id="a_edge12_Node000006_Node000007"><a xlink:title=" ">
<path fill="none" stroke="#63b8ff" d="M518.62,-121.58C517.12,-109.63 515.26,-94.72 514.1,-85.41"/>
<polygon fill="#63b8ff" stroke="#63b8ff" points="515.19,-122.38 519.9,-131.87 522.14,-121.51 515.19,-122.38"/>
</a>
</g>
</g>
</g>
</svg>
