<?xml version="1.0" encoding="UTF-8" standalone="no"?>
<!DOCTYPE svg PUBLIC "-//W3C//DTD SVG 1.1//EN"
 "http://www.w3.org/Graphics/SVG/1.1/DTD/svg11.dtd">
<!-- Generated by graphviz version 2.43.0 (0)
 -->
<!-- Title: FoodObject Pages: 1 -->
<svg width="319pt" height="347pt"
 viewBox="0.00 0.00 318.50 347.00" xmlns="http://www.w3.org/2000/svg" xmlns:xlink="http://www.w3.org/1999/xlink">
<g id="graph0" class="graph" transform="scale(1 1) rotate(0) translate(4 343)">
<title>FoodObject</title>
<!-- Node1 -->
<g id="Node000001" class="node">
<title>Node1</title>
<g id="a_Node000001"><a xlink:title=" ">
<polygon fill="#999999" stroke="#666666" points="181,-217 110,-217 110,-198 181,-198 181,-217"/>
<text text-anchor="middle" x="145.5" y="-205" font-family="Helvetica,sans-Serif" font-size="10.00">FoodObject</text>
</a>
</g>
</g>
<!-- Node3 -->
<g id="Node000003" class="node">
<title>Node3</title>
<g id="a_Node000003"><a xlink:href="../../de/d4d/classHandPickUp.html" target="_top" xlink:title=" ">
<polygon fill="white" stroke="#666666" points="167.5,-151 91.5,-151 91.5,-132 167.5,-132 167.5,-151"/>
<text text-anchor="middle" x="129.5" y="-139" font-family="Helvetica,sans-Serif" font-size="10.00">HandPickUp</text>
</a>
</g>
</g>
<!-- Node1&#45;&gt;Node3 -->
<g id="edge11_Node000003_Node000001" class="edge">
<title>Node1&#45;&gt;Node3</title>
<g id="a_edge11_Node000003_Node000001"><a xlink:title=" ">
<path fill="none" stroke="#9a32cd" stroke-dasharray="5,2" d="M124.18,-191.07C121.06,-187.79 118.3,-184.07 116.5,-180 112.28,-170.42 117.65,-158.99 122.71,-151.29"/>
<polygon fill="#9a32cd" stroke="#9a32cd" points="122.04,-193.85 131.83,-197.89 126.69,-188.62 122.04,-193.85"/>
</a>
</g>
<text text-anchor="middle" x="150" y="-172" font-family="Helvetica,sans-Serif" font-size="10.00" fill="grey"> _interactable</text>
</g>
<!-- Node2 -->
<g id="Node000002" class="node">
<title>Node2</title>
<g id="a_Node000002"><a xlink:title=" ">
<polygon fill="white" stroke="#666666" points="93,-283 0,-283 0,-264 93,-264 93,-283"/>
<text text-anchor="middle" x="46.5" y="-271" font-family="Helvetica,sans-Serif" font-size="10.00">MonoBehaviour</text>
</a>
</g>
</g>
<!-- Node2&#45;&gt;Node1 -->
<g id="edge1_Node000001_Node000002" class="edge">
<title>Node2&#45;&gt;Node1</title>
<g id="a_edge1_Node000001_Node000002"><a xlink:title=" ">
<path fill="none" stroke="#63b8ff" d="M73.06,-259.06C80.45,-255.07 88.4,-250.55 95.5,-246 109.75,-236.87 125.2,-224.94 135.1,-217.02"/>
<polygon fill="#63b8ff" stroke="#63b8ff" points="71.31,-256.03 64.09,-263.79 74.57,-262.22 71.31,-256.03"/>
</a>
</g>
</g>
<!-- Node2&#45;&gt;Node3 -->
<g id="edge3_Node000003_Node000002" class="edge">
<title>Node2&#45;&gt;Node3</title>
<g id="a_edge3_Node000003_Node000002"><a xlink:title=" ">
<path fill="none" stroke="#63b8ff" d="M57.08,-255.24C69.79,-234.6 91.86,-199.06 111.5,-169 115.39,-163.04 119.89,-156.42 123.42,-151.28"/>
<polygon fill="#63b8ff" stroke="#63b8ff" points="54.04,-253.49 51.79,-263.85 60.01,-257.16 54.04,-253.49"/>
</a>
</g>
</g>
<!-- Node4 -->
<g id="Node000004" class="node">
<title>Node4</title>
<g id="a_Node000004"><a xlink:href="../../d2/d8e/classHandMovement.html" target="_top" xlink:title=" ">
<polygon fill="white" stroke="#666666" points="299,-85 204,-85 204,-66 299,-66 299,-85"/>
<text text-anchor="middle" x="251.5" y="-73" font-family="Helvetica,sans-Serif" font-size="10.00">HandMovement</text>
</a>
</g>
</g>
<!-- Node2&#45;&gt;Node4 -->
<g id="edge5_Node000004_Node000002" class="edge">
<title>Node2&#45;&gt;Node4</title>
<g id="a_edge5_Node000004_Node000002"><a xlink:title=" ">
<path fill="none" stroke="#63b8ff" d="M47,-253.74C48.64,-224.92 55.4,-169.21 82.5,-132 96.73,-112.47 106.12,-112.13 128.5,-103 142.1,-97.45 175.36,-90.42 203.87,-84.99"/>
<polygon fill="#63b8ff" stroke="#63b8ff" points="43.49,-253.86 46.57,-264 50.48,-254.15 43.49,-253.86"/>
</a>
</g>
</g>
<!-- Node5 -->
<g id="Node000005" class="node">
<title>Node5</title>
<g id="a_Node000005"><a xlink:href="../../d9/df6/classPickUpInteraction.html" target="_top" xlink:title=" ">
<polygon fill="white" stroke="#666666" points="141,-19 38,-19 38,0 141,0 141,-19"/>
<text text-anchor="middle" x="89.5" y="-7" font-family="Helvetica,sans-Serif" font-size="10.00">PickUpInteraction</text>
</a>
</g>
</g>
<!-- Node2&#45;&gt;Node5 -->
<g id="edge8_Node000005_Node000002" class="edge">
<title>Node2&#45;&gt;Node5</title>
<g id="a_edge8_Node000005_Node000002"><a xlink:title=" ">
<path fill="none" stroke="#63b8ff" d="M28.81,-256.3C17.72,-244.32 5.5,-226.94 5.5,-208.5 5.5,-208.5 5.5,-208.5 5.5,-74.5 5.5,-45.9 36.69,-28.39 61.06,-19.08"/>
<polygon fill="#63b8ff" stroke="#63b8ff" points="26.62,-259.06 36.15,-263.68 31.58,-254.12 26.62,-259.06"/>
</a>
</g>
</g>
<!-- Node3&#45;&gt;Node1 -->
<g id="edge2_Node000001_Node000003" class="edge">
<title>Node3&#45;&gt;Node1</title>
<g id="a_edge2_Node000001_Node000003"><a xlink:title=" ">
<path fill="none" stroke="#9a32cd" stroke-dasharray="5,2" d="M173.57,-155.77C179.09,-159.22 184,-163.56 187.5,-169 195.06,-180.76 181.07,-191.08 167.24,-197.9"/>
<polygon fill="#9a32cd" stroke="#9a32cd" points="175.03,-152.58 164.54,-151.04 171.78,-158.78 175.03,-152.58"/>
</a>
</g>
<text text-anchor="middle" x="215" y="-172" font-family="Helvetica,sans-Serif" font-size="10.00" fill="grey"> interactor</text>
</g>
<!-- Node3&#45;&gt;Node4 -->
<g id="edge6_Node000004_Node000003" class="edge">
<title>Node3&#45;&gt;Node4</title>
<g id="a_edge6_Node000004_Node000003"><a xlink:title=" ">
<path fill="none" stroke="#9a32cd" stroke-dasharray="5,2" d="M177.65,-133.29C193.24,-129.35 209.97,-123.3 223.5,-114 234.21,-106.64 242.47,-93.83 247.16,-85.26"/>
<polygon fill="#9a32cd" stroke="#9a32cd" points="176.59,-129.94 167.62,-135.58 178.15,-136.76 176.59,-129.94"/>
</a>
</g>
<text text-anchor="middle" x="265" y="-106" font-family="Helvetica,sans-Serif" font-size="10.00" fill="grey"> handPickUp</text>
</g>
<!-- Node4&#45;&gt;Node3 -->
<g id="edge4_Node000003_Node000004" class="edge">
<title>Node4&#45;&gt;Node3</title>
<g id="a_edge4_Node000003_Node000004"><a xlink:title=" ">
<path fill="none" stroke="#9a32cd" stroke-dasharray="5,2" d="M193.94,-84.32C170.38,-88.64 146.72,-94.82 138.5,-103 130.91,-110.56 129.29,-123.31 129.14,-131.82"/>
<polygon fill="#9a32cd" stroke="#9a32cd" points="194.73,-87.73 203.98,-82.58 193.53,-80.84 194.73,-87.73"/>
</a>
</g>
<text text-anchor="middle" x="181" y="-106" font-family="Helvetica,sans-Serif" font-size="10.00" fill="grey"> _handMovement</text>
</g>
<!-- Node4&#45;&gt;Node5 -->
<g id="edge9_Node000005_Node000004" class="edge">
<title>Node4&#45;&gt;Node5</title>
<g id="a_edge9_Node000005_Node000004"><a xlink:title=" ">
<path fill="none" stroke="#9a32cd" stroke-dasharray="5,2" d="M193.63,-66.67C164.58,-61.97 132.96,-55.47 120.5,-48 108.76,-40.97 99.47,-27.82 94.22,-19.11"/>
<polygon fill="#9a32cd" stroke="#9a32cd" points="193.35,-70.16 203.77,-68.25 194.43,-63.25 193.35,-70.16"/>
</a>
</g>
<text text-anchor="middle" x="160.5" y="-40" font-family="Helvetica,sans-Serif" font-size="10.00" fill="grey"> handMovement</text>
</g>
<!-- Node5&#45;&gt;Node3 -->
<g id="edge10_Node000003_Node000005" class="edge">
<title>Node5&#45;&gt;Node3</title>
<g id="a_edge10_Node000003_Node000005"><a xlink:title=" ">
<path fill="none" stroke="#9a32cd" stroke-dasharray="5,2" d="M78.34,-27.99C69.99,-43.41 61.31,-66.28 69.5,-85 78.65,-105.93 100.02,-122.49 114.63,-131.89"/>
<polygon fill="#9a32cd" stroke="#9a32cd" points="81.54,-29.44 83.59,-19.05 75.51,-25.89 81.54,-29.44"/>
</a>
</g>
<text text-anchor="middle" x="132.5" y="-73" font-family="Helvetica,sans-Serif" font-size="10.00" fill="grey"> _playerPickUpInteraction</text>
</g>
<!-- Node5&#45;&gt;Node4 -->
<g id="edge7_Node000004_Node000005" class="edge">
<title>Node5&#45;&gt;Node4</title>
<g id="a_edge7_Node000004_Node000005"><a xlink:title=" ">
<path fill="none" stroke="#9a32cd" stroke-dasharray="5,2" d="M151.49,-19.49C169.17,-23.45 188.08,-29.07 204.5,-37 219.54,-44.26 234.14,-57.1 242.97,-65.7"/>
<polygon fill="#9a32cd" stroke="#9a32cd" points="151.75,-15.97 141.25,-17.35 150.32,-22.82 151.75,-15.97"/>
</a>
</g>
<text text-anchor="middle" x="265.5" y="-40" font-family="Helvetica,sans-Serif" font-size="10.00" fill="grey"> pickUpInteraction</text>
</g>
<!-- Node6 -->
<g id="Node000006" class="node">
<title>Node6</title>
<g id="a_Node000006"><a xlink:href="../../d7/d35/classFoodStats.html" target="_top" xlink:title=" ">
<polygon fill="white" stroke="#666666" points="178,-283 113,-283 113,-264 178,-264 178,-283"/>
<text text-anchor="middle" x="145.5" y="-271" font-family="Helvetica,sans-Serif" font-size="10.00">FoodStats</text>
</a>
</g>
</g>
<!-- Node6&#45;&gt;Node1 -->
<g id="edge12_Node000001_Node000006" class="edge">
<title>Node6&#45;&gt;Node1</title>
<g id="a_edge12_Node000001_Node000006"><a xlink:title=" ">
<path fill="none" stroke="#9a32cd" stroke-dasharray="5,2" d="M145.5,-253.58C145.5,-241.63 145.5,-226.72 145.5,-217.41"/>
<polygon fill="#9a32cd" stroke="#9a32cd" points="142,-253.87 145.5,-263.87 149,-253.87 142,-253.87"/>
</a>
</g>
<text text-anchor="middle" x="159.5" y="-238" font-family="Helvetica,sans-Serif" font-size="10.00" fill="grey"> stats</text>
</g>
<!-- Node7 -->
<g id="Node000007" class="node">
<title>Node7</title>
<g id="a_Node000007"><a xlink:title=" ">
<polygon fill="white" stroke="#666666" points="194,-339 97,-339 97,-320 194,-320 194,-339"/>
<text text-anchor="middle" x="145.5" y="-327" font-family="Helvetica,sans-Serif" font-size="10.00">ScriptableObject</text>
</a>
</g>
</g>
<!-- Node7&#45;&gt;Node6 -->
<g id="edge13_Node000006_Node000007" class="edge">
<title>Node7&#45;&gt;Node6</title>
<g id="a_edge13_Node000006_Node000007"><a xlink:title=" ">
<path fill="none" stroke="#63b8ff" d="M145.5,-309.3C145.5,-300.41 145.5,-290.28 145.5,-283.25"/>
<polygon fill="#63b8ff" stroke="#63b8ff" points="142,-309.58 145.5,-319.58 149,-309.58 142,-309.58"/>
</a>
</g>
</g>
</g>
</svg>
