<?xml version="1.0" encoding="UTF-8" standalone="no"?>
<!DOCTYPE svg PUBLIC "-//W3C//DTD SVG 1.1//EN"
 "http://www.w3.org/Graphics/SVG/1.1/DTD/svg11.dtd">
<!-- Generated by graphviz version 2.43.0 (0)
 -->
<!-- Title: PickUpInteraction Pages: 1 -->
<svg width="415pt" height="281pt"
 viewBox="0.00 0.00 414.72 281.00" xmlns="http://www.w3.org/2000/svg" xmlns:xlink="http://www.w3.org/1999/xlink">
<g id="graph0" class="graph" transform="scale(1 1) rotate(0) translate(4 277)">
<title>PickUpInteraction</title>
<!-- Node1 -->
<g id="Node000001" class="node">
<title>Node1</title>
<g id="a_Node000001"><a xlink:title=" ">
<polygon fill="#999999" stroke="#666666" points="139.72,-217 36.72,-217 36.72,-198 139.72,-198 139.72,-217"/>
<text text-anchor="middle" x="88.22" y="-205" font-family="Helvetica,sans-Serif" font-size="10.00">PickUpInteraction</text>
</a>
</g>
</g>
<!-- Node3 -->
<g id="Node000003" class="node">
<title>Node3</title>
<g id="a_Node000003"><a xlink:href="../../d2/d8e/classHandMovement.html" target="_top" xlink:title=" ">
<polygon fill="white" stroke="#666666" points="244.72,-151 149.72,-151 149.72,-132 244.72,-132 244.72,-151"/>
<text text-anchor="middle" x="197.22" y="-139" font-family="Helvetica,sans-Serif" font-size="10.00">HandMovement</text>
</a>
</g>
</g>
<!-- Node1&#45;&gt;Node3 -->
<g id="edge13_Node000003_Node000001" class="edge">
<title>Node1&#45;&gt;Node3</title>
<g id="a_edge13_Node000003_Node000001"><a xlink:title=" ">
<path fill="none" stroke="#9a32cd" stroke-dasharray="5,2" d="M54.62,-193.54C42.43,-186.92 33.36,-178.31 41.22,-169 44.76,-164.8 104.81,-155.5 149.35,-149.11"/>
<polygon fill="#9a32cd" stroke="#9a32cd" points="53.33,-196.8 63.86,-197.99 56.37,-190.49 53.33,-196.8"/>
</a>
</g>
<text text-anchor="middle" x="86.22" y="-172" font-family="Helvetica,sans-Serif" font-size="10.00" fill="grey"> pickUpInteraction</text>
</g>
<!-- Node4 -->
<g id="Node000004" class="node">
<title>Node4</title>
<g id="a_Node000004"><a xlink:href="../../de/d4d/classHandPickUp.html" target="_top" xlink:title=" ">
<polygon fill="white" stroke="#666666" points="139.22,-85 63.22,-85 63.22,-66 139.22,-66 139.22,-85"/>
<text text-anchor="middle" x="101.22" y="-73" font-family="Helvetica,sans-Serif" font-size="10.00">HandPickUp</text>
</a>
</g>
</g>
<!-- Node1&#45;&gt;Node4 -->
<g id="edge7_Node000004_Node000001" class="edge">
<title>Node1&#45;&gt;Node4</title>
<g id="a_edge7_Node000004_Node000001"><a xlink:title=" ">
<path fill="none" stroke="#9a32cd" stroke-dasharray="5,2" d="M54.87,-193.61C47.59,-189.88 40.27,-185.35 34.22,-180 17.02,-164.81 4.24,-152.15 15.22,-132 27.97,-108.59 55.3,-93.56 75.75,-85.13"/>
<polygon fill="#9a32cd" stroke="#9a32cd" points="53.42,-196.79 63.96,-197.89 56.41,-190.46 53.42,-196.79"/>
</a>
</g>
<text text-anchor="middle" x="78.22" y="-139" font-family="Helvetica,sans-Serif" font-size="10.00" fill="grey"> _playerPickUpInteraction</text>
</g>
<!-- Node2 -->
<g id="Node000002" class="node">
<title>Node2</title>
<g id="a_Node000002"><a xlink:title=" ">
<polygon fill="white" stroke="#666666" points="260.72,-273 167.72,-273 167.72,-254 260.72,-254 260.72,-273"/>
<text text-anchor="middle" x="214.22" y="-261" font-family="Helvetica,sans-Serif" font-size="10.00">MonoBehaviour</text>
</a>
</g>
</g>
<!-- Node2&#45;&gt;Node1 -->
<g id="edge1_Node000001_Node000002" class="edge">
<title>Node2&#45;&gt;Node1</title>
<g id="a_edge1_Node000001_Node000002"><a xlink:title=" ">
<path fill="none" stroke="#63b8ff" d="M185.06,-250C161.44,-239.88 128.79,-225.89 108.09,-217.02"/>
<polygon fill="#63b8ff" stroke="#63b8ff" points="183.68,-253.22 194.25,-253.94 186.44,-246.79 183.68,-253.22"/>
</a>
</g>
</g>
<!-- Node2&#45;&gt;Node3 -->
<g id="edge3_Node000003_Node000002" class="edge">
<title>Node2&#45;&gt;Node3</title>
<g id="a_edge3_Node000003_Node000002"><a xlink:title=" ">
<path fill="none" stroke="#63b8ff" d="M223.99,-244.79C233.34,-225.28 244.37,-193.45 232.22,-169 228.48,-161.49 221.5,-155.54 214.74,-151.2"/>
<polygon fill="#63b8ff" stroke="#63b8ff" points="220.84,-243.26 219.38,-253.76 227.07,-246.46 220.84,-243.26"/>
</a>
</g>
</g>
<!-- Node2&#45;&gt;Node4 -->
<g id="edge5_Node000004_Node000002" class="edge">
<title>Node2&#45;&gt;Node4</title>
<g id="a_edge5_Node000004_Node000002"><a xlink:title=" ">
<path fill="none" stroke="#63b8ff" d="M157.73,-254.78C110.18,-247.22 46.99,-234.3 28.22,-217 -0.48,-190.56 -5.39,-169.26 6.22,-132 10.87,-117.05 13.78,-112.52 26.22,-103 36.96,-94.77 50.47,-88.96 63.05,-84.92"/>
<polygon fill="#63b8ff" stroke="#63b8ff" points="157.21,-258.24 167.62,-256.32 158.28,-251.33 157.21,-258.24"/>
</a>
</g>
</g>
<!-- Node5 -->
<g id="Node000005" class="node">
<title>Node5</title>
<g id="a_Node000005"><a xlink:href="../../dc/df8/classFoodObject.html" target="_top" xlink:title=" ">
<polygon fill="white" stroke="#666666" points="272.72,-19 201.72,-19 201.72,0 272.72,0 272.72,-19"/>
<text text-anchor="middle" x="237.22" y="-7" font-family="Helvetica,sans-Serif" font-size="10.00">FoodObject</text>
</a>
</g>
</g>
<!-- Node2&#45;&gt;Node5 -->
<g id="edge9_Node000005_Node000002" class="edge">
<title>Node2&#45;&gt;Node5</title>
<g id="a_edge9_Node000005_Node000002"><a xlink:title=" ">
<path fill="none" stroke="#63b8ff" d="M248.28,-249.55C264.84,-240.82 281.22,-227.41 281.22,-208.5 281.22,-208.5 281.22,-208.5 281.22,-74.5 281.22,-51.31 261.35,-30.39 248.32,-19.16"/>
<polygon fill="#63b8ff" stroke="#63b8ff" points="246.67,-246.44 239.16,-253.92 249.69,-252.75 246.67,-246.44"/>
</a>
</g>
</g>
<!-- Node3&#45;&gt;Node1 -->
<g id="edge2_Node000001_Node000003" class="edge">
<title>Node3&#45;&gt;Node1</title>
<g id="a_edge2_Node000001_Node000003"><a xlink:title=" ">
<path fill="none" stroke="#9a32cd" stroke-dasharray="5,2" d="M173.56,-156.39C152.07,-169.01 121.04,-187.23 102.92,-197.87"/>
<polygon fill="#9a32cd" stroke="#9a32cd" points="175.55,-159.28 182.4,-151.2 172.01,-153.24 175.55,-159.28"/>
</a>
</g>
<text text-anchor="middle" x="189.22" y="-172" font-family="Helvetica,sans-Serif" font-size="10.00" fill="grey"> handMovement</text>
</g>
<!-- Node3&#45;&gt;Node4 -->
<g id="edge6_Node000004_Node000003" class="edge">
<title>Node3&#45;&gt;Node4</title>
<g id="a_edge6_Node000004_Node000003"><a xlink:title=" ">
<path fill="none" stroke="#9a32cd" stroke-dasharray="5,2" d="M141.17,-129.86C116.73,-124.66 92.79,-118.56 89.22,-114 82.55,-105.5 88.68,-93.21 94.36,-85.04"/>
<polygon fill="#9a32cd" stroke="#9a32cd" points="140.74,-133.35 151.25,-131.96 142.17,-126.5 140.74,-133.35"/>
</a>
</g>
<text text-anchor="middle" x="131.72" y="-106" font-family="Helvetica,sans-Serif" font-size="10.00" fill="grey"> _handMovement</text>
</g>
<!-- Node4&#45;&gt;Node3 -->
<g id="edge4_Node000003_Node000004" class="edge">
<title>Node4&#45;&gt;Node3</title>
<g id="a_edge4_Node000003_Node000004"><a xlink:title=" ">
<path fill="none" stroke="#9a32cd" stroke-dasharray="5,2" d="M149.03,-86.6C159.48,-90.45 169.89,-95.75 178.22,-103 187.02,-110.67 192.24,-123.4 194.92,-131.87"/>
<polygon fill="#9a32cd" stroke="#9a32cd" points="150.07,-83.26 139.48,-83.45 147.88,-89.91 150.07,-83.26"/>
</a>
</g>
<text text-anchor="middle" x="216.72" y="-106" font-family="Helvetica,sans-Serif" font-size="10.00" fill="grey"> handPickUp</text>
</g>
<!-- Node4&#45;&gt;Node5 -->
<g id="edge10_Node000005_Node000004" class="edge">
<title>Node4&#45;&gt;Node5</title>
<g id="a_edge10_Node000005_Node000004"><a xlink:title=" ">
<path fill="none" stroke="#9a32cd" stroke-dasharray="5,2" d="M104.33,-55.74C106.35,-48.94 109.7,-41.78 115.22,-37 127.96,-25.97 170.23,-18.56 201.46,-14.45"/>
<polygon fill="#9a32cd" stroke="#9a32cd" points="100.86,-55.18 102.1,-65.71 107.69,-56.71 100.86,-55.18"/>
</a>
</g>
<text text-anchor="middle" x="140.72" y="-40" font-family="Helvetica,sans-Serif" font-size="10.00" fill="grey"> interactor</text>
</g>
<!-- Node5&#45;&gt;Node4 -->
<g id="edge8_Node000004_Node000005" class="edge">
<title>Node5&#45;&gt;Node4</title>
<g id="a_edge8_Node000004_Node000005"><a xlink:title=" ">
<path fill="none" stroke="#9a32cd" stroke-dasharray="5,2" d="M214.8,-24.11C201.98,-31.62 185.46,-40.85 170.22,-48 155.93,-54.7 139.44,-61.08 126.17,-65.9"/>
<polygon fill="#9a32cd" stroke="#9a32cd" points="216.6,-27.12 223.41,-19 213.02,-21.1 216.6,-27.12"/>
</a>
</g>
<text text-anchor="middle" x="223.72" y="-40" font-family="Helvetica,sans-Serif" font-size="10.00" fill="grey"> _interactable</text>
</g>
<!-- Node6 -->
<g id="Node000006" class="node">
<title>Node6</title>
<g id="a_Node000006"><a xlink:href="../../d7/d35/classFoodStats.html" target="_top" xlink:title=" ">
<polygon fill="white" stroke="#666666" points="382.72,-85 317.72,-85 317.72,-66 382.72,-66 382.72,-85"/>
<text text-anchor="middle" x="350.22" y="-73" font-family="Helvetica,sans-Serif" font-size="10.00">FoodStats</text>
</a>
</g>
</g>
<!-- Node6&#45;&gt;Node5 -->
<g id="edge11_Node000005_Node000006" class="edge">
<title>Node6&#45;&gt;Node5</title>
<g id="a_edge11_Node000005_Node000006"><a xlink:title=" ">
<path fill="none" stroke="#9a32cd" stroke-dasharray="5,2" d="M330.54,-59.88C320.28,-52.57 307.36,-43.85 295.22,-37 283.36,-30.31 269.5,-23.93 258.31,-19.11"/>
<polygon fill="#9a32cd" stroke="#9a32cd" points="328.63,-62.82 338.78,-65.86 332.74,-57.16 328.63,-62.82"/>
</a>
</g>
<text text-anchor="middle" x="326.22" y="-40" font-family="Helvetica,sans-Serif" font-size="10.00" fill="grey"> stats</text>
</g>
<!-- Node7 -->
<g id="Node000007" class="node">
<title>Node7</title>
<g id="a_Node000007"><a xlink:title=" ">
<polygon fill="white" stroke="#666666" points="406.72,-151 309.72,-151 309.72,-132 406.72,-132 406.72,-151"/>
<text text-anchor="middle" x="358.22" y="-139" font-family="Helvetica,sans-Serif" font-size="10.00">ScriptableObject</text>
</a>
</g>
</g>
<!-- Node7&#45;&gt;Node6 -->
<g id="edge12_Node000006_Node000007" class="edge">
<title>Node7&#45;&gt;Node6</title>
<g id="a_edge12_Node000006_Node000007"><a xlink:title=" ">
<path fill="none" stroke="#63b8ff" d="M355.85,-121.58C354.36,-109.63 352.49,-94.72 351.33,-85.41"/>
<polygon fill="#63b8ff" stroke="#63b8ff" points="352.42,-122.38 357.14,-131.87 359.37,-121.51 352.42,-122.38"/>
</a>
</g>
</g>
</g>
</svg>
