<?xml version="1.0" encoding="UTF-8" standalone="no"?>
<!DOCTYPE svg PUBLIC "-//W3C//DTD SVG 1.1//EN"
 "http://www.w3.org/Graphics/SVG/1.1/DTD/svg11.dtd">
<!-- Generated by graphviz version 2.43.0 (0)
 -->
<!-- Title: HandPickUp Pages: 1 -->
<svg width="545pt" height="215pt"
 viewBox="0.00 0.00 545.02 215.00" xmlns="http://www.w3.org/2000/svg" xmlns:xlink="http://www.w3.org/1999/xlink">
<g id="graph0" class="graph" transform="scale(1 1) rotate(0) translate(4 211)">
<title>HandPickUp</title>
<!-- Node1 -->
<g id="Node000001" class="node">
<title>Node1</title>
<g id="a_Node000001"><a xlink:title=" ">
<polygon fill="#999999" stroke="#666666" points="226.52,-151 150.52,-151 150.52,-132 226.52,-132 226.52,-151"/>
<text text-anchor="middle" x="188.52" y="-139" font-family="Helvetica,sans-Serif" font-size="10.00">HandPickUp</text>
</a>
</g>
</g>
<!-- Node3 -->
<g id="Node000003" class="node">
<title>Node3</title>
<g id="a_Node000003"><a xlink:href="../../d2/d8e/classHandMovement.html" target="_top" xlink:title=" ">
<polygon fill="white" stroke="#666666" points="107.02,-85 12.02,-85 12.02,-66 107.02,-66 107.02,-85"/>
<text text-anchor="middle" x="59.52" y="-73" font-family="Helvetica,sans-Serif" font-size="10.00">HandMovement</text>
</a>
</g>
</g>
<!-- Node1&#45;&gt;Node3 -->
<g id="edge4_Node000003_Node000001" class="edge">
<title>Node1&#45;&gt;Node3</title>
<g id="a_edge4_Node000003_Node000001"><a xlink:title=" ">
<path fill="none" stroke="#9a32cd" stroke-dasharray="5,2" d="M140.34,-137.56C105.53,-134.31 62.74,-127.61 51.52,-114 44.82,-105.89 49.44,-93.5 53.95,-85.21"/>
<polygon fill="#9a32cd" stroke="#9a32cd" points="140.11,-141.05 150.37,-138.42 140.71,-134.08 140.11,-141.05"/>
</a>
</g>
<text text-anchor="middle" x="82.02" y="-106" font-family="Helvetica,sans-Serif" font-size="10.00" fill="grey"> handPickUp</text>
</g>
<!-- Node5 -->
<g id="Node000005" class="node">
<title>Node5</title>
<g id="a_Node000005"><a xlink:href="../../dc/df8/classFoodObject.html" target="_top" xlink:title=" ">
<polygon fill="white" stroke="#666666" points="458.02,-85 387.02,-85 387.02,-66 458.02,-66 458.02,-85"/>
<text text-anchor="middle" x="422.52" y="-73" font-family="Helvetica,sans-Serif" font-size="10.00">FoodObject</text>
</a>
</g>
</g>
<!-- Node1&#45;&gt;Node5 -->
<g id="edge11_Node000005_Node000001" class="edge">
<title>Node1&#45;&gt;Node5</title>
<g id="a_edge11_Node000005_Node000001"><a xlink:title=" ">
<path fill="none" stroke="#9a32cd" stroke-dasharray="5,2" d="M219.32,-127.94C229.09,-123.74 239.85,-118.88 249.52,-114 258.23,-109.6 259.34,-106.32 268.52,-103 274.06,-100.99 343.21,-89.47 386.95,-82.3"/>
<polygon fill="#9a32cd" stroke="#9a32cd" points="217.81,-124.77 209.97,-131.89 220.54,-131.22 217.81,-124.77"/>
</a>
</g>
<text text-anchor="middle" x="294.02" y="-106" font-family="Helvetica,sans-Serif" font-size="10.00" fill="grey"> interactor</text>
</g>
<!-- Node2 -->
<g id="Node000002" class="node">
<title>Node2</title>
<g id="a_Node000002"><a xlink:title=" ">
<polygon fill="white" stroke="#666666" points="154.02,-207 61.02,-207 61.02,-188 154.02,-188 154.02,-207"/>
<text text-anchor="middle" x="107.52" y="-195" font-family="Helvetica,sans-Serif" font-size="10.00">MonoBehaviour</text>
</a>
</g>
</g>
<!-- Node2&#45;&gt;Node1 -->
<g id="edge1_Node000001_Node000002" class="edge">
<title>Node2&#45;&gt;Node1</title>
<g id="a_edge1_Node000001_Node000002"><a xlink:title=" ">
<path fill="none" stroke="#63b8ff" d="M129.08,-182.12C143.88,-172.26 163.03,-159.49 175.54,-151.15"/>
<polygon fill="#63b8ff" stroke="#63b8ff" points="126.91,-179.36 120.53,-187.82 130.79,-185.19 126.91,-179.36"/>
</a>
</g>
</g>
<!-- Node2&#45;&gt;Node3 -->
<g id="edge3_Node000003_Node000002" class="edge">
<title>Node2&#45;&gt;Node3</title>
<g id="a_edge3_Node000003_Node000002"><a xlink:title=" ">
<path fill="none" stroke="#63b8ff" d="M89.99,-180.77C74.39,-165.48 52.67,-140.73 43.52,-114 40.08,-103.96 46.16,-92.81 51.79,-85.3"/>
<polygon fill="#63b8ff" stroke="#63b8ff" points="87.82,-183.53 97.49,-187.86 92.63,-178.44 87.82,-183.53"/>
</a>
</g>
</g>
<!-- Node4 -->
<g id="Node000004" class="node">
<title>Node4</title>
<g id="a_Node000004"><a xlink:href="../../d9/df6/classPickUpInteraction.html" target="_top" xlink:title=" ">
<polygon fill="white" stroke="#666666" points="126.02,-19 23.02,-19 23.02,0 126.02,0 126.02,-19"/>
<text text-anchor="middle" x="74.52" y="-7" font-family="Helvetica,sans-Serif" font-size="10.00">PickUpInteraction</text>
</a>
</g>
</g>
<!-- Node2&#45;&gt;Node4 -->
<g id="edge6_Node000004_Node000002" class="edge">
<title>Node2&#45;&gt;Node4</title>
<g id="a_edge6_Node000004_Node000002"><a xlink:title=" ">
<path fill="none" stroke="#63b8ff" d="M85.35,-182.31C58.93,-163.77 16.68,-128.48 3.52,-85 -2.83,-64.05 -0.54,-52.88 14.52,-37 22.19,-28.9 32.79,-23.12 42.94,-19.07"/>
<polygon fill="#63b8ff" stroke="#63b8ff" points="83.4,-185.22 93.64,-187.94 87.34,-179.43 83.4,-185.22"/>
</a>
</g>
</g>
<!-- Node2&#45;&gt;Node5 -->
<g id="edge10_Node000005_Node000002" class="edge">
<title>Node2&#45;&gt;Node5</title>
<g id="a_edge10_Node000005_Node000002"><a xlink:title=" ">
<path fill="none" stroke="#63b8ff" d="M164.33,-188.22C242.95,-175.63 379.14,-149.34 413.52,-114 420.99,-106.32 422.63,-93.59 422.82,-85.13"/>
<polygon fill="#63b8ff" stroke="#63b8ff" points="163.43,-184.82 154.1,-189.84 164.52,-191.74 163.43,-184.82"/>
</a>
</g>
</g>
<!-- Node3&#45;&gt;Node1 -->
<g id="edge2_Node000001_Node000003" class="edge">
<title>Node3&#45;&gt;Node1</title>
<g id="a_edge2_Node000001_Node000003"><a xlink:title=" ">
<path fill="none" stroke="#9a32cd" stroke-dasharray="5,2" d="M87.54,-89.22C96.81,-93.51 107.14,-98.38 116.52,-103 135.99,-112.59 158.09,-124.21 172.61,-131.95"/>
<polygon fill="#9a32cd" stroke="#9a32cd" points="88.91,-86 78.36,-85 85.98,-92.36 88.91,-86"/>
</a>
</g>
<text text-anchor="middle" x="178.02" y="-106" font-family="Helvetica,sans-Serif" font-size="10.00" fill="grey"> _handMovement</text>
</g>
<!-- Node3&#45;&gt;Node4 -->
<g id="edge7_Node000004_Node000003" class="edge">
<title>Node3&#45;&gt;Node4</title>
<g id="a_edge7_Node000004_Node000003"><a xlink:title=" ">
<path fill="none" stroke="#9a32cd" stroke-dasharray="5,2" d="M31.14,-60.75C21.74,-54.24 14.95,-45.94 20.52,-37 25.65,-28.76 34.18,-23.01 42.97,-19.02"/>
<polygon fill="#9a32cd" stroke="#9a32cd" points="29.44,-63.82 39.82,-65.98 33.06,-57.82 29.44,-63.82"/>
</a>
</g>
<text text-anchor="middle" x="60.52" y="-40" font-family="Helvetica,sans-Serif" font-size="10.00" fill="grey"> handMovement</text>
</g>
<!-- Node4&#45;&gt;Node1 -->
<g id="edge8_Node000001_Node000004" class="edge">
<title>Node4&#45;&gt;Node1</title>
<g id="a_edge8_Node000001_Node000004"><a xlink:title=" ">
<path fill="none" stroke="#9a32cd" stroke-dasharray="5,2" d="M136.31,-17.98C162.69,-22.29 189.66,-28.55 199.52,-37 246.58,-77.35 237.32,-88.68 224.52,-114 220.66,-121.62 213.48,-127.58 206.53,-131.91"/>
<polygon fill="#9a32cd" stroke="#9a32cd" points="136.68,-14.49 126.26,-16.42 135.61,-21.41 136.68,-14.49"/>
</a>
</g>
<text text-anchor="middle" x="297.52" y="-73" font-family="Helvetica,sans-Serif" font-size="10.00" fill="grey"> _playerPickUpInteraction</text>
</g>
<!-- Node4&#45;&gt;Node3 -->
<g id="edge5_Node000003_Node000004" class="edge">
<title>Node4&#45;&gt;Node3</title>
<g id="a_edge5_Node000003_Node000004"><a xlink:title=" ">
<path fill="none" stroke="#9a32cd" stroke-dasharray="5,2" d="M97.35,-25.65C104.28,-32.19 109.01,-40.13 104.52,-48 99.93,-56.03 91.85,-61.87 83.8,-65.98"/>
<polygon fill="#9a32cd" stroke="#9a32cd" points="99.29,-22.71 89.3,-19.17 94.9,-28.16 99.29,-22.71"/>
</a>
</g>
<text text-anchor="middle" x="150.52" y="-40" font-family="Helvetica,sans-Serif" font-size="10.00" fill="grey"> pickUpInteraction</text>
</g>
<!-- Node5&#45;&gt;Node1 -->
<g id="edge9_Node000001_Node000005" class="edge">
<title>Node5&#45;&gt;Node1</title>
<g id="a_edge9_Node000001_Node000005"><a xlink:title=" ">
<path fill="none" stroke="#9a32cd" stroke-dasharray="5,2" d="M385.81,-88.38C373.24,-92.69 359.16,-97.79 346.52,-103 336.04,-107.32 334.27,-110.44 323.52,-114 291.66,-124.56 254.11,-131.51 226.71,-135.63"/>
<polygon fill="#9a32cd" stroke="#9a32cd" points="387.16,-91.62 395.51,-85.11 384.92,-84.99 387.16,-91.62"/>
</a>
</g>
<text text-anchor="middle" x="380.02" y="-106" font-family="Helvetica,sans-Serif" font-size="10.00" fill="grey"> _interactable</text>
</g>
<!-- Node6 -->
<g id="Node000006" class="node">
<title>Node6</title>
<g id="a_Node000006"><a xlink:href="../../d7/d35/classFoodStats.html" target="_top" xlink:title=" ">
<polygon fill="white" stroke="#666666" points="521.02,-151 456.02,-151 456.02,-132 521.02,-132 521.02,-151"/>
<text text-anchor="middle" x="488.52" y="-139" font-family="Helvetica,sans-Serif" font-size="10.00">FoodStats</text>
</a>
</g>
</g>
<!-- Node6&#45;&gt;Node5 -->
<g id="edge12_Node000005_Node000006" class="edge">
<title>Node6&#45;&gt;Node5</title>
<g id="a_edge12_Node000005_Node000006"><a xlink:title=" ">
<path fill="none" stroke="#9a32cd" stroke-dasharray="5,2" d="M472.36,-124.83C459.58,-112.44 442.2,-95.59 431.7,-85.41"/>
<polygon fill="#9a32cd" stroke="#9a32cd" points="470,-127.42 479.62,-131.87 474.87,-122.39 470,-127.42"/>
</a>
</g>
<text text-anchor="middle" x="472.52" y="-106" font-family="Helvetica,sans-Serif" font-size="10.00" fill="grey"> stats</text>
</g>
<!-- Node7 -->
<g id="Node000007" class="node">
<title>Node7</title>
<g id="a_Node000007"><a xlink:title=" ">
<polygon fill="white" stroke="#666666" points="537.02,-207 440.02,-207 440.02,-188 537.02,-188 537.02,-207"/>
<text text-anchor="middle" x="488.52" y="-195" font-family="Helvetica,sans-Serif" font-size="10.00">ScriptableObject</text>
</a>
</g>
</g>
<!-- Node7&#45;&gt;Node6 -->
<g id="edge13_Node000006_Node000007" class="edge">
<title>Node7&#45;&gt;Node6</title>
<g id="a_edge13_Node000006_Node000007"><a xlink:title=" ">
<path fill="none" stroke="#63b8ff" d="M488.52,-177.3C488.52,-168.41 488.52,-158.28 488.52,-151.25"/>
<polygon fill="#63b8ff" stroke="#63b8ff" points="485.02,-177.58 488.52,-187.58 492.02,-177.58 485.02,-177.58"/>
</a>
</g>
</g>
</g>
</svg>
