<?xml version="1.0" encoding="UTF-8" standalone="no"?>
<!DOCTYPE svg PUBLIC "-//W3C//DTD SVG 1.1//EN"
 "http://www.w3.org/Graphics/SVG/1.1/DTD/svg11.dtd">
<!-- Generated by graphviz version 2.43.0 (0)
 -->
<!-- Title: RespawnFood Pages: 1 -->
<svg width="181pt" height="149pt"
 viewBox="0.00 0.00 180.50 149.00" xmlns="http://www.w3.org/2000/svg" xmlns:xlink="http://www.w3.org/1999/xlink">
<g id="graph0" class="graph" transform="scale(1 1) rotate(0) translate(4 145)">
<title>RespawnFood</title>
<!-- Node1 -->
<g id="Node000001" class="node">
<title>Node1</title>
<g id="a_Node000001"><a xlink:title=" ">
<polygon fill="#999999" stroke="#666666" points="92.5,-19 8.5,-19 8.5,0 92.5,0 92.5,-19"/>
<text text-anchor="middle" x="50.5" y="-7" font-family="Helvetica,sans-Serif" font-size="10.00">RespawnFood</text>
</a>
</g>
</g>
<!-- Node2 -->
<g id="Node000002" class="node">
<title>Node2</title>
<g id="a_Node000002"><a xlink:title=" ">
<polygon fill="white" stroke="#666666" points="93,-141 0,-141 0,-122 93,-122 93,-141"/>
<text text-anchor="middle" x="46.5" y="-129" font-family="Helvetica,sans-Serif" font-size="10.00">MonoBehaviour</text>
</a>
</g>
</g>
<!-- Node2&#45;&gt;Node1 -->
<g id="edge1_Node000001_Node000002" class="edge">
<title>Node2&#45;&gt;Node1</title>
<g id="a_edge1_Node000001_Node000002"><a xlink:title=" ">
<path fill="none" stroke="#63b8ff" d="M47.13,-111.65C48.01,-85.22 49.57,-38.26 50.21,-19.05"/>
<polygon fill="#63b8ff" stroke="#63b8ff" points="43.62,-111.76 46.79,-121.87 50.62,-111.99 43.62,-111.76"/>
</a>
</g>
</g>
<!-- Node3 -->
<g id="Node000003" class="node">
<title>Node3</title>
<g id="a_Node000003"><a xlink:href="../../d7/d94/classMouthMovement.html" target="_top" xlink:title=" ">
<polygon fill="white" stroke="#666666" points="162.5,-85 62.5,-85 62.5,-66 162.5,-66 162.5,-85"/>
<text text-anchor="middle" x="112.5" y="-73" font-family="Helvetica,sans-Serif" font-size="10.00">MouthMovement</text>
</a>
</g>
</g>
<!-- Node2&#45;&gt;Node3 -->
<g id="edge3_Node000003_Node000002" class="edge">
<title>Node2&#45;&gt;Node3</title>
<g id="a_edge3_Node000003_Node000002"><a xlink:title=" ">
<path fill="none" stroke="#63b8ff" d="M65.05,-115.32C76.88,-105.65 91.79,-93.45 101.7,-85.33"/>
<polygon fill="#63b8ff" stroke="#63b8ff" points="62.63,-112.78 57.1,-121.82 67.06,-118.2 62.63,-112.78"/>
</a>
</g>
</g>
<!-- Node3&#45;&gt;Node1 -->
<g id="edge2_Node000001_Node000003" class="edge">
<title>Node3&#45;&gt;Node1</title>
<g id="a_edge2_Node000001_Node000003"><a xlink:title=" ">
<path fill="none" stroke="#9a32cd" stroke-dasharray="5,2" d="M96.98,-58.48C85.01,-46.12 68.9,-29.49 59.13,-19.41"/>
<polygon fill="#9a32cd" stroke="#9a32cd" points="94.67,-61.12 104.14,-65.87 99.69,-56.25 94.67,-61.12"/>
</a>
</g>
<text text-anchor="middle" x="128.5" y="-40" font-family="Helvetica,sans-Serif" font-size="10.00" fill="grey"> mouthMovement</text>
</g>
</g>
</svg>
